<svg id="svg" xmlns="http://www.w3.org/2000/svg" xmlns:xlink="http://www.w3.org/1999/xlink" width="400" height="400" viewBox="0, 0, 400,400"><g id="svgg"><path id="path0" d="M175.000 114.017 L 172.000 116.151 172.000 187.869 C 172.000 255.655,172.134 259.708,174.438 261.793 C 178.475 265.447,222.945 265.055,226.667 261.333 C 230.182 257.818,230.914 120.008,227.443 115.255 C 224.780 111.607,179.878 110.547,175.000 114.017 M99.540 155.772 C 95.985 159.700,96.201 258.562,99.772 261.793 C 102.927 264.648,147.299 265.115,151.104 262.333 C 153.185 260.811,153.391 256.155,153.463 209.040 C 153.540 158.166,153.338 154.667,150.321 154.667 C 149.226 154.667,149.248 155.114,150.400 156.267 C 152.697 158.563,152.697 258.770,150.400 261.067 C 147.061 264.405,103.192 263.201,100.742 259.703 C 97.409 254.944,97.644 161.526,101.000 157.486 C 103.180 154.861,104.819 154.652,126.000 154.304 L 148.667 153.931 125.207 153.632 C 103.948 153.361,101.540 153.562,99.540 155.772 M249.667 174.017 L 246.667 176.151 246.667 217.869 C 246.667 256.591,246.842 259.745,249.105 261.793 C 253.416 265.695,299.120 265.040,301.924 261.037 C 304.878 256.820,305.046 179.275,302.110 175.255 C 299.446 171.607,254.545 170.547,249.667 174.017 " stroke="none" fill="#000000" fill-rule="evenodd"></path></g></svg>